<?xml version="1.0" encoding="UTF-8"?>
<svg width="77px" height="20px" viewBox="0 0 77 20" version="1.1" xmlns="http://www.w3.org/2000/svg" xmlns:xlink="http://www.w3.org/1999/xlink">
    <title>Group 4</title>
    <g id="Page-1" stroke="none" stroke-width="1" fill="none" fill-rule="evenodd">
        <g id="AETERNUM-Copy" transform="translate(-752.000000, -553.000000)" fill-rule="nonzero">
            <g id="Group-4" transform="translate(752.000000, 553.000000)">
                <g id="bitcoin-money-cryptocurrency-svgrepo-com" fill="#F78F1F">
                    <path d="M9.54042553,9.18297872 L9.54893617,6.6212766 C10.2723404,6.6212766 12.5446809,6.4 12.5446809,7.91489362 C12.5361702,9.36170213 10.2638298,9.18297872 9.54042553,9.18297872 Z M13.1234241,11.8978723 L13.1234241,11.8978723 C13.1319149,10.2382979 10.4,10.4765957 9.53191489,10.4765957 L9.52340426,13.3021277 C10.3914894,13.3021277 13.1234241,13.4893617 13.1234241,11.8978723 Z M0,10.0340426 C0,4.50212766 4.44255319,0 9.97446809,0 C15.506383,0 19.9744681,4.46808511 19.9744681,10 C19.9744681,15.5319149 15.4723404,20 9.97446809,20 C4.47659574,20 0,15.5404255 0,10.0340426 Z M7.44680851,9.4893617 C7.40425532,9.4893617 7.36170213,9.4893617 7.3106383,9.4893617 L7.29361702,12.8510638 C7.26808511,13.012766 7.17446809,13.2765957 6.80851064,13.2765957 C6.82553191,13.293617 5.87234043,13.2765957 5.87234043,13.2765957 L5.60851064,14.8085106 L7.27659574,14.8170213 C7.59148936,14.8170213 7.8893617,14.8255319 8.19574468,14.8255319 L8.18723404,16.9531915 L9.47234043,16.9617021 L9.48085106,14.8510638 C9.82978723,14.8595745 10.1702128,14.8595745 10.5021277,14.8680851 L10.493617,16.9702128 L11.7787234,16.9787234 L11.787234,14.8510638 C13.9404255,14.7319149 15.4553191,14.1957447 15.6510638,12.1702128 C15.8042553,10.5361702 15.0468085,9.81276596 13.8212766,9.51489362 C14.5702128,9.14042553 15.0297872,8.47659574 14.9276596,7.36170213 L14.9276596,7.36170213 C14.7829787,5.83829787 13.4808511,5.32765957 11.8212766,5.17446809 L11.8297872,3.06382979 L10.5446809,3.05531915 L10.5446809,5.10638298 C10.2042553,5.10638298 9.86382979,5.11489362 9.52340426,5.11489362 L9.53191489,3.04680851 L8.24680851,3.03829787 L8.23829787,5.14893617 C7.95744681,5.15744681 7.68510638,5.15744681 7.4212766,5.15744681 L7.4212766,5.14893617 L5.65106383,5.14042553 L5.65106383,6.5106383 C5.65106383,6.5106383 6.59574468,6.49361702 6.5787234,6.5106383 C7.09787234,6.5106383 7.26808511,6.81702128 7.3106383,7.07234043 L7.30212766,9.47234043 C7.34468085,9.48085106 7.39574468,9.48085106 7.44680851,9.4893617 Z" id="Shape"></path>
                </g>
                <g id="Cripto" transform="translate(25.974468, 2.000000)" fill="#05003D">
                    <path d="M4.81911058,12.9296875 C4.00140224,12.9296875 3.26442308,12.7942708 2.60817308,12.5234375 C1.95192308,12.2526042 1.41025641,11.8554688 0.983173077,11.3320312 C0.556089744,10.8085938 0.264423077,10.1640625 0.108173077,9.3984375 C-0.0480769231,8.6328125 -0.0350560897,7.75520833 0.147235577,6.765625 C0.319110577,5.85416667 0.606870994,5.03255208 1.01051683,4.30078125 C1.41416266,3.56901042 1.89593349,2.96354167 2.45582933,2.484375 C3.01572516,2.00520833 3.63812099,1.63932292 4.32301683,1.38671875 C5.00791266,1.13411458 5.72796474,1.0078125 6.48317308,1.0078125 C7.12900641,1.0078125 7.73056891,1.1015625 8.28786058,1.2890625 C8.84515224,1.4765625 9.33473558,1.74609375 9.75661058,2.09765625 C10.1784856,2.44921875 10.5144231,2.89583333 10.7644231,3.4375 C11.0144231,3.97916667 11.1498397,4.58854167 11.1706731,5.265625 L8.66286058,5.5625 C8.61598558,4.86979167 8.38681891,4.32161458 7.97536058,3.91796875 C7.56390224,3.51432292 7.02483974,3.3125 6.35817308,3.3125 C5.42067308,3.3125 4.62510016,3.64973958 3.97145433,4.32421875 C3.31780849,4.99869792 2.89202724,5.91927083 2.69411058,7.0859375 C2.49619391,8.1640625 2.60687099,9.02604167 3.02614183,9.671875 C3.44541266,10.3177083 4.10296474,10.640625 4.99879808,10.640625 C5.70713141,10.640625 6.33473558,10.4375 6.88161058,10.03125 C7.42848558,9.625 7.85556891,9.04947917 8.16286058,8.3046875 L10.5612981,8.828125 C10.0248397,10.171875 9.24749599,11.1914062 8.22926683,11.8867188 C7.21103766,12.5820312 6.07431891,12.9296875 4.81911058,12.9296875 Z" id="Path"></path>
                    <path d="M11.3112981,12.734375 L13.2644231,3.5859375 L15.6941106,3.5859375 L15.3894231,4.859375 C15.6654647,4.38020833 16.0834335,4.00520833 16.6433293,3.734375 C17.2032252,3.46354167 17.8946314,3.38020833 18.7175481,3.484375 L18.1784856,5.7265625 C17.2930689,5.56510417 16.5391627,5.72395833 15.9167668,6.203125 C15.294371,6.68229167 14.8737981,7.45052083 14.6550481,8.5078125 L13.7409856,12.734375 L11.3112981,12.734375 Z" id="Path"></path>
                    <path d="M21.4909856,2.4609375 C21.0691106,2.4609375 20.7409856,2.34375 20.5066106,2.109375 C20.2722356,1.875 20.1993189,1.54947917 20.2878606,1.1328125 C20.3607772,0.763020833 20.5391627,0.481770833 20.8230168,0.2890625 C21.106871,0.0963541667 21.4415064,0 21.8269231,0 C22.2435897,0 22.5652043,0.1171875 22.7917668,0.3515625 C23.0183293,0.5859375 23.0951522,0.911458333 23.0222356,1.328125 C22.9545272,1.69791667 22.778746,1.97916667 22.4948918,2.171875 C22.2110377,2.36458333 21.8764022,2.4609375 21.4909856,2.4609375 Z M18.0144231,12.734375 L19.9675481,3.5859375 L22.4128606,3.5859375 L20.4597356,12.734375 L18.0144231,12.734375 Z" id="Shape"></path>
                    <path d="M21.9441106,15.6953125 L24.5222356,3.5859375 L26.9519231,3.5859375 L26.6003606,5.0859375 C26.9128606,4.5546875 27.3399439,4.14192708 27.8816106,3.84765625 C28.4232772,3.55338542 29.0274439,3.40625 29.6941106,3.40625 C30.2566106,3.40625 30.7644231,3.50520833 31.2175481,3.703125 C31.6706731,3.90104167 32.0573918,4.203125 32.3777043,4.609375 C32.6980168,5.015625 32.9050481,5.52864583 32.9987981,6.1484375 C33.0925481,6.76822917 33.0612981,7.50260417 32.9050481,8.3515625 C32.7800481,8.97135417 32.5938502,9.53645833 32.3464543,10.046875 C32.0990585,10.5572917 31.8191106,10.9856771 31.5066106,11.3320312 C31.1941106,11.6783854 30.8477564,11.96875 30.4675481,12.203125 C30.0873397,12.4375 29.6993189,12.6080729 29.3034856,12.7148438 C28.9076522,12.8216146 28.5040064,12.875 28.0925481,12.875 C27.3581731,12.875 26.7527043,12.6953125 26.2761418,12.3359375 C25.7995793,11.9765625 25.5144231,11.5234375 25.4206731,10.9765625 L24.3816106,15.6953125 L21.9441106,15.6953125 Z M27.6550481,10.875 C28.4050481,10.875 29.0365585,10.6184896 29.5495793,10.1054688 C30.0626002,9.59244792 30.4024439,8.88541667 30.5691106,7.984375 C30.7045272,7.19270833 30.6094752,6.5625 30.2839543,6.09375 C29.9584335,5.625 29.4467147,5.390625 28.7487981,5.390625 C28.0196314,5.390625 27.4011418,5.65104167 26.8933293,6.171875 C26.3855168,6.69270833 26.0378606,7.40364583 25.8503606,8.3046875 C25.7045272,9.09635417 25.7956731,9.72265625 26.1237981,10.1835938 C26.4519231,10.6445312 26.9623397,10.875 27.6550481,10.875 Z" id="Shape"></path>
                    <path d="M38.0847356,12.875 C36.8086939,12.875 35.9128606,12.5625 35.3972356,11.9375 C34.8816106,11.3125 34.7592147,10.3515625 35.0300481,9.0546875 L35.7956731,5.421875 L34.5066106,5.421875 L34.9050481,3.5859375 L36.2019231,3.5859375 L36.5378606,1.9375 L39.0925481,1.421875 L38.6472356,3.5859375 L41.1394231,3.5859375 L40.7409856,5.421875 L38.2487981,5.421875 L37.4753606,9.0234375 C37.3243189,9.6953125 37.3490585,10.1861979 37.5495793,10.4960938 C37.7501002,10.8059896 38.1159856,10.9609375 38.6472356,10.9609375 C38.8347356,10.9609375 39.0743189,10.9322917 39.3659856,10.875 L39.5144231,12.75 C39.0873397,12.8333333 38.6107772,12.875 38.0847356,12.875 Z" id="Path"></path>
                    <path d="M45.3425481,12.9453125 C44.7019231,12.9453125 44.1133814,12.8450521 43.5769231,12.6445312 C43.0404647,12.4440104 42.5730168,12.1393229 42.1745793,11.7304688 C41.7761418,11.3216146 41.5066106,10.8033854 41.3659856,10.1757812 C41.2253606,9.54817708 41.2279647,8.80729167 41.3737981,7.953125 C41.4883814,7.33333333 41.6784856,6.76692708 41.9441106,6.25390625 C42.2097356,5.74088542 42.5183293,5.31119792 42.8698918,4.96484375 C43.2214543,4.61848958 43.6146835,4.32552083 44.0495793,4.0859375 C44.4844752,3.84635417 44.9284856,3.67317708 45.3816106,3.56640625 C45.8347356,3.45963542 46.2956731,3.40625 46.7644231,3.40625 C47.2696314,3.40625 47.7448918,3.47005208 48.1902043,3.59765625 C48.6355168,3.72526042 49.0456731,3.91796875 49.4206731,4.17578125 C49.7956731,4.43359375 50.1016627,4.76041667 50.3386418,5.15625 C50.575621,5.55208333 50.7357772,6.01692708 50.8191106,6.55078125 C50.9024439,7.08463542 50.8790064,7.69010417 50.7487981,8.3671875 C50.6290064,8.9921875 50.4362981,9.56380208 50.1706731,10.0820312 C49.9050481,10.6002604 49.5964543,11.0338542 49.2448918,11.3828125 C48.8933293,11.7317708 48.5001002,12.0247396 48.0652043,12.2617188 C47.6303085,12.4986979 47.1862981,12.671875 46.7331731,12.78125 C46.2800481,12.890625 45.8165064,12.9453125 45.3425481,12.9453125 Z M45.5534856,10.9140625 C46.2878606,10.9140625 46.9089543,10.6510417 47.4167668,10.125 C47.9245793,9.59895833 48.2514022,8.88541667 48.3972356,7.984375 C48.5326522,7.20833333 48.4336939,6.58723958 48.1003606,6.12109375 C47.7670272,5.65494792 47.2540064,5.421875 46.5612981,5.421875 C45.8217147,5.421875 45.1993189,5.6796875 44.6941106,6.1953125 C44.1889022,6.7109375 43.8607772,7.4140625 43.7097356,8.3046875 C43.5795272,9.10677083 43.6784856,9.7421875 44.0066106,10.2109375 C44.3347356,10.6796875 44.8503606,10.9140625 45.5534856,10.9140625 Z" id="Shape"></path>
                </g>
            </g>
        </g>
    </g>
</svg>